<?xml version="1.0" encoding="UTF-8" standalone="no"?>
<!-- Created with Inkscape (http://www.inkscape.org/) -->

<svg
   xmlns:dc="http://purl.org/dc/elements/1.1/"
   xmlns:cc="http://creativecommons.org/ns#"
   xmlns:rdf="http://www.w3.org/1999/02/22-rdf-syntax-ns#"
   xmlns:svg="http://www.w3.org/2000/svg"
   xmlns="http://www.w3.org/2000/svg"
   xmlns:sodipodi="http://sodipodi.sourceforge.net/DTD/sodipodi-0.dtd"
   xmlns:inkscape="http://www.inkscape.org/namespaces/inkscape"
   width="1000"
   height="558"
   viewBox="0 0 999.99997 557.99997"
   id="svg3481"
   version="1.1"
   inkscape:version="0.91 r13725"
   sodipodi:docname="Indumak-P-0-L.svg">
  <defs
     id="defs3483">
    <linearGradient
       id="id0"
       gradientUnits="userSpaceOnUse"
       x1="482.86899"
       y1="258.68399"
       x2="334.75601"
       y2="258.68399">
      <stop
         offset="0"
         style="stop-opacity:1; stop-color:#708E36"
         id="stop3420" />
      <stop
         offset="0.6"
         style="stop-opacity:1; stop-color:#3F6932"
         id="stop3422" />
      <stop
         offset="1"
         style="stop-opacity:1; stop-color:#3F6932"
         id="stop3424" />
    </linearGradient>
    <linearGradient
       id="id1"
       gradientUnits="userSpaceOnUse"
       x1="487.35999"
       y1="258.68399"
       x2="635.49298"
       y2="258.68399">
      <stop
         offset="0"
         style="stop-opacity:1; stop-color:#708E36"
         id="stop3427" />
      <stop
         offset="0.6"
         style="stop-opacity:1; stop-color:#3F6932"
         id="stop3429" />
      <stop
         offset="1"
         style="stop-opacity:1; stop-color:#3F6932"
         id="stop3431" />
    </linearGradient>
  </defs>
  <sodipodi:namedview
     id="base"
     pagecolor="#ffffff"
     bordercolor="#666666"
     borderopacity="1.0"
     inkscape:pageopacity="0.0"
     inkscape:pageshadow="2"
     inkscape:zoom="0.23933049"
     inkscape:cx="1499.406"
     inkscape:cy="1030.3405"
     inkscape:document-units="px"
     inkscape:current-layer="layer1"
     showgrid="false"
     inkscape:window-width="1309"
     inkscape:window-height="747"
     inkscape:window-x="57"
     inkscape:window-y="21"
     inkscape:window-maximized="1"
     width="1000mm"
     units="px"
     inkscape:snap-page="true">
    <inkscape:grid
       type="xygrid"
       id="grid3617" />
  </sodipodi:namedview>
  <metadata
     id="metadata3486">
    <rdf:RDF>
      <cc:Work
         rdf:about="">
        <dc:format>image/svg+xml</dc:format>
        <dc:type
           rdf:resource="http://purl.org/dc/dcmitype/StillImage" />
        <dc:title></dc:title>
      </cc:Work>
    </rdf:RDF>
  </metadata>
  <g
     inkscape:label="Camada 1"
     inkscape:groupmode="layer"
     id="layer1"
     transform="translate(0,-494.36231)">
    <g
       style="clip-rule:evenodd;fill-rule:evenodd;image-rendering:optimizeQuality;shape-rendering:geometricPrecision;text-rendering:geometricPrecision"
       id="_2780704916288"
       transform="matrix(1.4044944,0,0,1.4044944,-178.6763,277.3035)">
      <path
         style="fill:#3f6932;fill-rule:nonzero"
         inkscape:connector-curvature="0"
         id="path3436"
         d="m 820,549 0,-4 0,0 c 3,0 5,-1 6,-2 2,-2 3,-5 3,-8 0,-3 -1,-5 -3,-7 -1,-2 -3,-3 -6,-3 l 0,0 0,-4 0,0 c 4,0 7,2 10,4 2,3 3,6 3,10 0,4 -1,8 -3,10 -3,3 -6,4 -10,4 l 0,0 z m -359,5 0,0 c 1,0 2,-1 3,-2 1,-1 1,-2 1,-4 l 0,-4 -4,0 0,4 2,0 c 0,0 0,0 0,1 0,0 0,0 0,0 0,1 0,1 -1,2 0,1 -1,1 -1,1 l 0,2 z m 375,-10 5,0 0,4 -5,0 0,-4 z m -16,-23 0,4 c -2,0 -4,1 -5,3 -2,2 -3,4 -3,7 0,3 1,6 3,8 1,1 3,2 5,2 l 0,4 c -3,0 -6,-1 -9,-4 -2,-2 -3,-6 -3,-10 0,-4 1,-7 3,-10 3,-2 6,-4 9,-4 z m -25,17 0,-4 1,0 c 1,0 3,0 3,-1 1,0 1,-2 1,-3 0,-1 0,-2 -1,-3 0,-1 -2,-1 -3,-1 l -1,0 0,-4 1,0 c 1,0 2,0 3,0 1,0 2,1 2,1 1,1 2,2 3,3 1,1 1,2 1,4 0,2 0,3 -1,4 0,1 -1,2 -2,3 -1,0 -2,0 -2,1 -1,0 -3,0 -4,0 l -1,0 z m 0,-16 0,4 -5,0 0,8 5,0 0,4 -5,0 0,10 -4,0 0,-26 9,0 z m -110,15 0,-3 1,0 c 1,0 3,-1 4,-1 0,-1 1,-2 1,-3 0,-2 -1,-3 -1,-3 -1,-1 -3,-1 -4,-1 l -1,0 0,-4 1,0 c 1,0 1,0 1,0 1,0 1,0 1,0 2,0 4,1 5,2 1,1 2,3 2,5 0,2 0,3 -1,4 -1,1 -1,2 -3,2 1,1 2,1 3,2 0,1 0,2 0,4 l 1,3 0,0 c 0,2 0,3 1,3 l 0,1 -5,0 c 0,0 0,-1 -1,-1 0,0 0,-1 0,-2 l 0,-3 c 0,-2 0,-3 -1,-4 -1,0 -2,-1 -3,-1 l -1,0 0,0 z m 23,-15 20,0 0,4 -8,0 0,22 -4,0 0,-22 -8,0 0,-4 z m 23,0 19,0 0,4 -14,0 0,7 13,0 0,3 -13,0 0,8 14,0 0,4 -19,0 0,-26 z m 24,0 6,0 6,21 7,-21 6,0 0,26 -4,0 0,-21 -7,21 -4,0 -6,-21 0,21 -4,0 0,-26 z m -70,0 0,4 -6,0 0,8 6,0 0,3 -6,0 0,11 -4,0 0,-26 10,0 z m -27,27 0,-4 0,0 c 3,0 5,-1 6,-2 2,-2 2,-5 2,-8 0,-3 0,-5 -2,-7 -1,-2 -3,-3 -6,-3 l 0,0 0,-4 0,0 c 4,0 7,2 9,4 3,3 4,6 4,10 0,4 -1,8 -4,10 -2,3 -5,4 -9,4 l 0,0 z m 0,-28 0,4 c -2,0 -4,1 -6,3 -1,2 -2,4 -2,7 0,3 1,6 2,8 2,1 4,2 6,2 l 0,4 c -4,0 -7,-1 -9,-4 -2,-2 -3,-6 -3,-10 0,-4 1,-7 3,-10 2,-2 5,-4 9,-4 z m -139,28 0,-4 0,0 c 2,0 4,-1 6,-2 1,-2 2,-5 2,-8 0,-3 -1,-5 -2,-7 -2,-2 -4,-3 -6,-3 l 0,0 0,-4 0,0 c 3,0 7,2 9,4 2,3 3,6 3,10 0,4 -1,8 -3,10 -2,3 -6,4 -9,4 l 0,0 z m 27,-27 6,0 6,21 7,-21 6,0 0,26 -4,0 0,-21 -7,21 -4,0 -6,-21 0,21 -4,0 0,-26 z m 30,0 19,0 0,4 -14,0 0,7 13,0 0,3 -13,0 0,8 15,0 0,4 -20,0 0,-26 z m 24,0 4,0 0,22 13,0 0,4 -17,0 0,-26 z m 20,0 4,0 0,10 13,0 0,-10 4,0 0,26 -4,0 0,-12 -13,0 0,12 -4,0 0,-26 z m -101,-1 0,4 c -3,0 -5,1 -6,3 -2,2 -3,4 -3,7 0,3 1,6 3,8 1,1 3,2 6,2 l 0,4 c -4,0 -7,-1 -10,-4 -2,-2 -3,-6 -3,-10 0,-4 1,-7 3,-10 3,-2 6,-4 10,-4 z m -74,20 0,-3 4,0 -4,-12 0,0 0,-4 2,0 10,26 -5,0 -2,-7 -5,0 z m 36,-19 4,0 12,20 0,-20 5,0 0,26 -5,0 -12,-19 0,19 -4,0 0,-26 z m -36,0 0,4 -4,12 4,0 0,3 -5,0 -2,7 -5,0 0,-1 10,-25 2,0 z m -12,4 1,0 0,-4 -1,0 0,4 z m 0,-4 0,4 -7,0 0,22 -4,0 0,-22 -9,0 0,-4 20,0 z m 0,25 0,1 0,0 0,-1 z m -32,-10 0,-3 1,0 c 1,0 3,-1 3,-1 1,-1 2,-2 2,-3 0,-2 -1,-3 -2,-3 0,-1 -2,-1 -3,-1 l -1,0 0,-4 1,0 c 1,0 1,0 1,0 1,0 1,0 1,0 2,0 4,1 5,2 1,1 2,3 2,5 0,2 0,3 -1,4 -1,1 -2,2 -3,2 1,1 2,1 3,2 0,1 0,2 0,4 l 1,3 0,0 c 0,2 0,3 1,3 l 0,1 -5,0 c 0,0 0,-1 -1,-1 0,0 0,-1 0,-2 l 0,-3 c 0,-2 0,-3 -1,-4 -1,0 -2,-1 -3,-1 l -1,0 0,0 z m 0,-15 0,4 -6,0 0,8 6,0 0,3 -6,0 0,11 -4,0 0,-26 10,0 z m -85,19 0,-3 4,0 -4,-12 0,0 0,-4 3,0 9,26 -4,0 -3,-7 -5,0 z m 47,-11 -4,0 c 0,-1 -1,-3 -2,-3 -1,-1 -3,-2 -5,-2 -2,0 -4,1 -6,3 -1,2 -2,4 -2,7 0,3 1,6 3,7 1,2 3,3 5,3 2,0 4,-1 5,-2 1,-1 2,-2 2,-4 l 4,0 c 0,3 -1,5 -3,7 -2,2 -5,3 -8,3 -4,0 -7,-1 -9,-4 -2,-2 -3,-6 -3,-10 0,-4 1,-8 3,-10 2,-2 5,-4 9,-4 4,0 6,1 8,3 2,1 3,4 3,6 z m 5,-8 18,0 0,4 -14,0 0,7 13,0 0,3 -13,0 0,8 15,0 0,4 -19,0 0,-26 z m -52,0 0,4 -4,12 4,0 0,3 -5,0 -2,7 -5,0 10,-26 2,0 z m -24,26 0,-4 c 2,0 3,-1 4,-2 2,-1 2,-4 2,-7 0,-3 0,-5 -2,-7 -1,-1 -2,-2 -4,-2 l 0,-4 c 3,0 6,1 8,3 2,3 3,6 3,10 0,4 -1,8 -3,10 -2,2 -5,3 -8,3 z m 0,-26 0,4 c 0,0 -1,0 -1,0 l -6,0 0,18 6,0 c 0,0 0,0 1,0 l 0,4 c -1,0 -1,0 -2,0 l -9,0 0,-26 10,0 c 0,0 1,0 1,0 z m -36,26 0,-4 c 2,0 3,-1 4,-2 1,-1 2,-4 2,-7 0,-3 -1,-5 -2,-7 -1,-1 -2,-2 -4,-2 l 0,-4 c 3,0 6,1 8,3 2,3 3,6 3,10 0,4 -2,8 -4,10 -2,2 -4,3 -7,3 z m 15,-26 4,0 0,26 -4,0 0,-26 z m -15,0 0,4 c -1,0 -1,0 -1,0 l -6,0 0,18 6,0 c 0,0 0,0 1,0 l 0,4 c -1,0 -1,0 -2,0 l -9,0 0,-26 10,0 c 0,0 0,0 1,0 z m -90,19 0,-3 4,0 -4,-12 0,0 0,-4 2,0 10,26 -5,0 -2,-7 -5,0 z m 25,-19 6,0 6,21 7,-21 6,0 0,26 -4,0 0,-21 -7,21 -4,0 -6,-21 0,21 -4,0 0,-26 z m 30,0 19,0 0,4 -14,0 0,7 13,0 0,3 -13,0 0,8 15,0 0,4 -20,0 0,-26 z m -91,0 5,0 12,20 0,-20 4,0 0,26 -5,0 -12,-19 0,19 -4,0 0,-26 z m 36,0 0,4 -4,12 4,0 0,3 -5,0 -3,7 -4,0 9,-26 3,0 z"
         class="fil0" />
      <path
         style="fill:#3f6932;fill-rule:nonzero"
         inkscape:connector-curvature="0"
         id="path3438"
         d="m 129,500 42,0 0,-107 -42,0 0,107 z m 109,-63 -16,-44 -41,0 0,107 38,0 0,-50 18,50 39,0 0,-107 -38,0 0,44 z m 116,-44 -68,0 0,107 68,0 c 10,0 17,-2 21,-6 4,-4 6,-10 6,-20 l 0,-58 c 0,-8 -2,-14 -6,-18 -5,-3 -11,-5 -21,-5 z m -16,75 c 0,3 0,5 -1,6 -1,1 -2,1 -4,1 0,0 0,0 -1,0 l -4,0 0,-58 4,0 c 1,0 1,0 1,0 2,1 3,1 4,2 1,1 1,3 1,6 l 0,43 z m 104,1 c 0,2 0,4 -1,6 -1,1 -2,1 -4,1 -2,0 -3,0 -4,-2 -1,-1 -2,-3 -2,-5 l 0,-76 -41,0 0,82 c 0,9 2,16 5,20 4,4 11,6 20,6 l 42,0 c 10,0 17,-2 21,-6 4,-4 6,-11 6,-20 l 0,-82 -42,0 0,76 z m 116,-32 -12,-44 -53,0 0,107 38,0 0,-59 15,59 23,0 16,-59 0,59 37,0 0,-107 -53,0 -11,44 z m 88,-44 -19,107 43,0 2,-23 12,0 3,23 43,0 -19,-107 -65,0 z m 28,60 4,-35 0,-1 5,36 -9,0 z m 142,-10 22,-50 -42,0 -20,43 0,-43 -41,0 0,107 41,0 0,-49 21,49 42,0 -23,-57 z"
         class="fil1" />
      <path
         style="fill:#708e36;fill-rule:nonzero"
         inkscape:connector-curvature="0"
         id="path3440"
         d="m 796,393 -20,43 0,-43 -41,0 0,57 c 38,-10 70,-21 90,-29 l 13,-28 -42,0 z m -667,0 0,66 c 10,-1 24,-3 42,-4 l 0,-62 -42,0 z m 517,0 -14,79 c 15,-2 31,-5 46,-8 15,-4 30,-7 43,-11 l -10,-60 -65,0 z m 28,60 4,-35 0,-1 5,36 -9,0 z m -116,-16 -12,-44 -53,0 0,76 c 12,3 24,5 38,7 l 0,-35 9,36 c 11,0 23,1 35,0 l 10,-36 0,36 c 12,-1 25,-2 37,-4 l 0,-80 -53,0 -11,44 z m -320,0 -16,-44 -41,0 0,61 c 11,-1 24,-2 38,-2 l 0,-2 1,2 c 17,-1 36,-2 56,-3 l 0,-56 -38,0 0,44 z m 152,14 c 14,1 28,3 41,4 l 0,-62 -41,0 0,58 z m 52,6 c 15,2 29,5 42,9 l 0,-73 -42,0 0,64 z m -88,-64 -68,0 0,56 c 14,0 28,0 42,0 l 0,-32 4,0 c 3,0 4,1 5,2 1,1 1,3 1,6 l 0,24 c 15,0 29,1 43,2 l 0,-35 c 0,-8 -2,-14 -6,-18 -5,-3 -11,-5 -21,-5 z"
         class="fil2" />
      <path
         inkscape:connector-curvature="0"
         style="fill:url(#id0)"
         id="path3442"
         d="m 335,361 60,0 45,-46 0,45 43,0 0,-99 -49,0 -99,100 0,0 z m 0,-204 0,0 99,99 49,0 0,-99 -43,0 0,45 -45,-45 -60,0 z"
         class="fil3" />
      <path
         inkscape:connector-curvature="0"
         style="fill:url(#id1)"
         id="path3444"
         d="m 575,361 60,0 -99,-100 -49,0 0,99 43,0 0,-45 45,46 z m 0,-204 -45,45 0,-45 -43,0 0,99 49,0 99,-99 -60,0 z"
         class="fil4" />
    </g>
  </g>
</svg>
