<?xml version="1.0" encoding="UTF-8" standalone="no"?>
<!-- Creator: CorelDRAW X8 -->

<svg
   xmlns:dc="http://purl.org/dc/elements/1.1/"
   xmlns:cc="http://creativecommons.org/ns#"
   xmlns:rdf="http://www.w3.org/1999/02/22-rdf-syntax-ns#"
   xmlns:svg="http://www.w3.org/2000/svg"
   xmlns="http://www.w3.org/2000/svg"
   xmlns:sodipodi="http://sodipodi.sourceforge.net/DTD/sodipodi-0.dtd"
   xmlns:inkscape="http://www.inkscape.org/namespaces/inkscape"
   xml:space="preserve"
   width="137.70708"
   height="70.281998"
   version="1.1"
   style="clip-rule:evenodd;fill-rule:evenodd;image-rendering:optimizeQuality;shape-rendering:geometricPrecision;text-rendering:geometricPrecision"
   viewBox="0 0 3436 1753.9616"
   id="svg3715"
   inkscape:version="0.91 r13725"
   sodipodi:docname="MARKEM-IMAJE-P-0-L.svg"><metadata
     id="metadata3770"><rdf:RDF><cc:Work
         rdf:about=""><dc:format>image/svg+xml</dc:format><dc:type
           rdf:resource="http://purl.org/dc/dcmitype/StillImage" /><dc:title></dc:title></cc:Work></rdf:RDF></metadata><sodipodi:namedview
     pagecolor="#ffffff"
     bordercolor="#666666"
     borderopacity="1"
     objecttolerance="10"
     gridtolerance="10"
     guidetolerance="10"
     inkscape:pageopacity="0"
     inkscape:pageshadow="2"
     inkscape:window-width="1309"
     inkscape:window-height="747"
     id="namedview3768"
     showgrid="false"
     units="px"
     inkscape:zoom="3.6838637"
     inkscape:cx="64.919052"
     inkscape:cy="27.541416"
     inkscape:window-x="57"
     inkscape:window-y="21"
     inkscape:window-maximized="1"
     inkscape:current-layer="svg3715" /><defs
     id="defs3717"><style
       type="text/css"
       id="style3719"><![CDATA[
    .fil0 {fill:none}
    .fil3 {fill:#FEFEFE;fill-rule:nonzero}
    .fil1 {fill:#767679;fill-rule:nonzero}
    .fil2 {fill:#723583;fill-rule:nonzero}
   ]]></style></defs><g
     id="g3726"
     transform="matrix(1.3024848,0,0,1.3024848,-519.98133,-829.68193)"><path
       class="fil1"
       d="m 469,1643 c 1,5 2,11 2,17 4,-2 9,-4 14,-7 6,-2 11,-4 17,-6 6,-2 12,-4 19,-5 6,-2 13,-2 20,-2 11,0 21,2 30,5 9,4 16,10 22,18 28,-15 55,-23 80,-23 10,0 20,2 27,5 8,4 15,9 20,15 5,6 9,13 11,22 3,8 4,17 4,27 l 0,160 -33,0 0,-157 c 0,-8 -1,-15 -3,-20 -2,-6 -5,-11 -9,-14 -3,-4 -7,-7 -12,-9 -5,-1 -10,-2 -16,-2 -20,0 -40,5 -59,15 2,8 3,17 3,27 l 0,160 -33,0 0,-157 c 0,-15 -4,-27 -11,-34 -6,-8 -16,-11 -29,-11 -11,0 -21,1 -32,5 -10,3 -20,7 -28,11 l 0,186 -33,0 0,-199 c -1,-10 -1,-19 -2,-27 l 31,0 z"
       id="path3728"
       inkscape:connector-curvature="0"
       style="fill:#767679;fill-rule:nonzero" /><path
       class="fil1"
       d="m 916,1749 c -19,1 -36,2 -49,5 -14,3 -25,7 -34,13 -9,5 -15,11 -19,18 -4,7 -6,14 -6,23 0,11 3,20 10,26 6,5 15,8 27,8 7,0 13,-1 19,-2 7,-1 13,-3 19,-6 6,-2 12,-5 17,-8 6,-3 11,-7 16,-11 l 0,-66 z m -132,-79 c 6,-5 12,-9 18,-13 7,-4 15,-7 22,-10 8,-3 16,-5 24,-6 9,-2 17,-2 25,-2 23,0 41,5 55,17 14,11 21,27 21,48 l 0,100 c 0,9 0,15 0,21 1,5 2,9 3,12 2,3 4,5 6,6 3,2 6,2 10,2 4,0 9,0 14,-1 l 5,15 c -4,4 -9,7 -16,9 -7,2 -14,3 -22,3 -9,0 -16,-3 -21,-9 -6,-6 -9,-15 -11,-27 -11,11 -24,20 -38,26 -14,7 -29,10 -45,10 -9,0 -17,-1 -25,-4 -7,-2 -14,-6 -19,-11 -6,-5 -10,-11 -13,-18 -4,-7 -5,-15 -5,-24 0,-12 2,-23 7,-32 5,-8 11,-16 18,-22 8,-7 17,-12 27,-16 10,-3 20,-6 31,-9 10,-2 21,-3 31,-4 11,-1 21,-1 30,-1 l 0,-23 c 0,-15 -4,-26 -12,-33 -8,-6 -18,-10 -32,-10 -8,0 -15,1 -22,3 -7,2 -13,4 -19,7 -5,3 -11,6 -16,9 -5,3 -9,7 -13,10 l -18,-23 z"
       id="path3730"
       inkscape:connector-curvature="0"
       style="fill:#767679;fill-rule:nonzero" /><path
       class="fil1"
       d="m 1046,1643 c 1,4 2,9 2,15 1,6 1,14 1,23 10,-12 23,-22 37,-30 15,-7 30,-11 45,-11 2,0 4,0 6,0 2,0 4,1 5,1 l -8,34 c -4,-1 -9,-1 -15,-1 -19,0 -34,4 -46,12 -13,9 -21,17 -24,25 l 0,158 -33,0 0,-195 c 0,-18 -1,-28 -1,-31 l 31,0 z"
       id="path3732"
       inkscape:connector-curvature="0"
       style="fill:#767679;fill-rule:nonzero" /><polygon
       class="fil1"
       points="1305,1867 1228,1744 1206,1762 1206,1867 1173,1867 1173,1540 1206,1540 1206,1727 1300,1642 1340,1642 1250,1725 1344,1867 "
       id="polygon3734"
       style="fill:#767679;fill-rule:nonzero" /><path
       class="fil1"
       d="m 1442,1664 c -19,0 -34,7 -44,21 -10,13 -15,28 -16,45 l 117,0 c -1,-18 -5,-33 -14,-46 -8,-13 -22,-20 -43,-20 z m 94,163 c -10,13 -22,24 -36,32 -14,8 -32,12 -55,12 -30,0 -53,-10 -71,-31 -18,-21 -27,-51 -27,-89 0,-33 8,-60 24,-81 16,-21 40,-31 72,-31 26,0 47,7 63,21 15,15 24,35 26,62 1,9 1,20 0,31 l -151,0 c 0,25 6,46 18,64 11,18 26,27 46,27 15,0 27,-3 38,-9 10,-6 20,-15 29,-27 l 24,19 z"
       id="path3736"
       inkscape:connector-curvature="0"
       style="fill:#767679;fill-rule:nonzero" /><path
       class="fil1"
       d="m 1609,1642 c 2,5 2,10 3,17 4,-2 9,-4 14,-7 5,-2 11,-5 17,-7 6,-2 12,-3 18,-4 7,-2 14,-2 20,-2 12,0 22,1 30,5 9,4 17,10 23,18 28,-16 54,-23 79,-23 11,0 20,1 28,5 8,3 14,8 19,14 5,7 9,14 11,22 3,9 4,18 4,27 l 0,160 -33,0 0,-157 c 0,-7 -1,-14 -3,-19 -2,-6 -5,-11 -8,-15 -4,-3 -8,-6 -13,-8 -5,-2 -10,-3 -16,-3 -20,0 -39,6 -58,16 1,8 2,17 2,27 l 0,159 -33,0 0,-156 c 0,-16 -3,-27 -10,-35 -7,-7 -17,-11 -30,-11 -10,0 -21,2 -31,5 -10,4 -20,8 -29,12 l 0,185 -33,0 0,-199 c 0,-9 -1,-18 -2,-26 l 31,0 z"
       id="path3738"
       inkscape:connector-curvature="0"
       style="fill:#767679;fill-rule:nonzero" /><polygon
       class="fil1"
       points="2113,1642 2113,1867 2080,1867 2080,1642 "
       id="polygon3740"
       style="fill:#767679;fill-rule:nonzero" /><path
       class="fil1"
       d="m 2197,1642 c 1,5 2,10 2,17 5,-2 9,-4 15,-7 5,-2 10,-5 16,-7 6,-2 13,-3 19,-4 7,-2 13,-2 20,-2 11,0 21,1 30,5 9,4 16,10 23,18 28,-16 54,-23 79,-23 11,0 20,1 28,5 7,3 14,8 19,14 5,7 9,14 11,22 3,9 4,18 4,27 l 0,160 -33,0 0,-157 c 0,-7 -1,-14 -3,-19 -2,-6 -5,-11 -8,-15 -4,-3 -8,-6 -13,-8 -5,-2 -10,-3 -16,-3 -20,0 -39,6 -59,16 2,8 3,17 3,27 l 0,159 -33,0 0,-156 c 0,-16 -3,-27 -10,-35 -7,-7 -17,-11 -30,-11 -11,0 -21,2 -31,5 -11,4 -20,8 -29,12 l 0,185 -33,0 0,-199 c 0,-9 -1,-18 -2,-26 l 31,0 z"
       id="path3742"
       inkscape:connector-curvature="0"
       style="fill:#767679;fill-rule:nonzero" /><path
       class="fil1"
       d="m 2640,1751 c -19,0 -35,2 -49,5 -13,3 -25,7 -33,12 -9,5 -16,11 -20,18 -4,7 -6,15 -6,23 0,12 3,20 10,26 7,6 16,8 28,8 6,0 13,0 19,-2 6,-1 12,-3 18,-5 6,-3 12,-6 18,-9 5,-3 10,-7 15,-10 l 0,-66 z m -131,-80 c 5,-4 11,-9 18,-13 7,-4 14,-7 22,-10 8,-2 16,-5 24,-6 8,-1 16,-2 24,-2 24,0 42,6 56,17 13,12 20,28 20,48 l 0,101 c 0,8 0,15 1,20 0,5 1,9 3,12 1,3 3,6 6,7 2,1 5,1 9,1 5,0 10,0 14,-1 l 6,15 c -4,4 -9,7 -16,9 -7,2 -15,3 -23,3 -8,0 -15,-3 -21,-9 -5,-6 -9,-15 -10,-27 -12,11 -25,20 -39,27 -14,6 -29,9 -45,9 -8,0 -17,-1 -24,-4 -8,-2 -14,-6 -20,-11 -5,-5 -10,-11 -13,-18 -3,-7 -5,-15 -5,-24 0,-12 3,-22 7,-31 5,-9 11,-17 19,-23 7,-6 16,-11 26,-15 10,-4 20,-7 31,-9 11,-3 21,-4 32,-5 10,-1 20,-1 29,-1 l 0,-23 c 0,-15 -4,-26 -11,-32 -8,-7 -19,-10 -33,-10 -7,0 -15,1 -21,2 -7,2 -13,4 -19,7 -6,3 -11,6 -16,9 -5,4 -10,7 -13,10 l -18,-23 z"
       id="path3744"
       inkscape:connector-curvature="0"
       style="fill:#767679;fill-rule:nonzero" /><path
       class="fil1"
       d="m 2773,1893 c 0,22 -6,39 -19,51 -13,12 -30,18 -52,18 -2,0 -5,0 -8,0 -3,-1 -5,-1 -6,-1 l 2,-29 c 1,0 3,0 5,0 1,1 3,1 4,1 11,0 20,-4 29,-10 8,-7 12,-19 12,-36 l 0,-245 33,0 0,251 z"
       id="path3746"
       inkscape:connector-curvature="0"
       style="fill:#767679;fill-rule:nonzero" /><path
       class="fil1"
       d="m 2905,1666 c -20,0 -35,6 -45,20 -10,13 -15,28 -16,45 l 117,0 c -1,-18 -5,-33 -13,-46 -9,-13 -23,-19 -43,-19 z m 93,162 c -9,13 -21,24 -36,32 -14,8 -32,12 -55,12 -29,0 -53,-10 -71,-31 -18,-21 -27,-51 -27,-89 0,-33 8,-60 24,-81 17,-21 41,-31 72,-31 26,0 47,7 63,22 15,14 24,35 26,61 1,10 1,20 1,31 l -151,0 c 0,25 5,46 17,64 11,18 27,27 46,27 15,0 27,-3 38,-9 11,-6 21,-15 30,-27 l 23,19 z"
       id="path3748"
       inkscape:connector-curvature="0"
       style="fill:#767679;fill-rule:nonzero" /><path
       class="fil2"
       d="m 2012,1774 c 0,8 -5,14 -10,14 l -45,0 c -6,0 -10,-6 -10,-14 l 0,-36 c 0,-8 4,-14 10,-14 l 45,0 c 5,0 10,6 10,14 l 0,36 z"
       id="path3750"
       inkscape:connector-curvature="0"
       style="fill:#723583;fill-rule:nonzero" /><path
       class="fil1"
       d="m 2073,1589 c 0,-5 2,-10 6,-15 4,-4 9,-7 15,-7 6,0 11,3 15,7 4,5 6,10 6,15 0,6 -2,11 -7,15 -4,4 -8,6 -14,6 -6,0 -10,-2 -15,-6 -4,-4 -6,-9 -6,-15 z"
       id="path3752"
       inkscape:connector-curvature="0"
       style="fill:#767679;fill-rule:nonzero" /><path
       class="fil1"
       d="m 2734,1589 c 0,-5 1,-10 5,-14 4,-5 9,-7 16,-7 6,0 11,2 15,7 3,4 5,9 5,14 0,6 -2,11 -6,15 -4,5 -9,7 -14,7 -6,0 -11,-2 -15,-7 -4,-4 -6,-9 -6,-15 z"
       id="path3754"
       inkscape:connector-curvature="0"
       style="fill:#767679;fill-rule:nonzero" /><path
       class="fil2"
       d="m 2123,1049 c 1,217 -174,394 -392,395 -217,1 -394,-175 -395,-392 -1,-218 175,-394 392,-395 l 1,0 c 217,-1 394,175 394,392 z"
       id="path3756"
       inkscape:connector-curvature="0"
       style="fill:#723583;fill-rule:nonzero" /><path
       class="fil3"
       d="m 1567,1217 c 0,15 -10,27 -22,27 l -62,0 c -13,0 -23,-12 -23,-27 l 0,-279 c 0,-15 10,-27 23,-27 l 62,0 c 12,0 22,12 22,27 l 0,279 z"
       id="path3758"
       inkscape:connector-curvature="0"
       style="fill:#fefefe;fill-rule:nonzero" /><path
       class="fil3"
       d="m 1703,1217 c 0,15 -11,27 -23,27 l -62,0 c -12,0 -23,-12 -23,-27 l 0,-279 c 0,-15 11,-27 23,-27 l 62,0 c 12,0 23,12 23,27 l 0,279 z"
       id="path3760"
       inkscape:connector-curvature="0"
       style="fill:#fefefe;fill-rule:nonzero" /><path
       class="fil3"
       d="m 1839,1217 c 0,15 -10,27 -23,27 l -62,0 c -12,0 -22,-12 -22,-27 l 0,-279 c 0,-15 10,-27 22,-27 l 62,0 c 13,0 23,12 23,27 l 0,279 z"
       id="path3762"
       inkscape:connector-curvature="0"
       style="fill:#fefefe;fill-rule:nonzero" /><path
       class="fil3"
       d="m 1975,1217 c 0,15 -10,27 -23,27 l -61,0 c -13,0 -23,-12 -23,-27 l 0,-279 c 0,-15 10,-27 23,-27 l 61,0 c 13,0 23,12 23,27 l 0,279 z"
       id="path3764"
       inkscape:connector-curvature="0"
       style="fill:#fefefe;fill-rule:nonzero" /><path
       class="fil3"
       d="m 1975,816 c 0,-12 -12,-29 -30,-30 l -46,0 c -19,1 -30,17 -31,30 l 0,42 c 0,16 15,29 30,31 l 46,0 c 14,-1 30,-12 31,-31 l 0,-42 z"
       id="path3766"
       inkscape:connector-curvature="0"
       style="fill:#fefefe;fill-rule:nonzero" /></g></svg>