<?xml version="1.0" encoding="UTF-8" standalone="no"?>
<!-- Creator: CorelDRAW X8 -->

<svg
   xmlns:dc="http://purl.org/dc/elements/1.1/"
   xmlns:cc="http://creativecommons.org/ns#"
   xmlns:rdf="http://www.w3.org/1999/02/22-rdf-syntax-ns#"
   xmlns:svg="http://www.w3.org/2000/svg"
   xmlns="http://www.w3.org/2000/svg"
   xmlns:sodipodi="http://sodipodi.sourceforge.net/DTD/sodipodi-0.dtd"
   xmlns:inkscape="http://www.inkscape.org/namespaces/inkscape"
   xml:space="preserve"
   width="137.70708"
   height="35"
   version="1.1"
   style="clip-rule:evenodd;fill-rule:evenodd;image-rendering:optimizeQuality;shape-rendering:geometricPrecision;text-rendering:geometricPrecision"
   viewBox="0 0 2377 604.1223"
   id="svg3663"
   inkscape:version="0.91 r13725"
   sodipodi:docname="Schulz-P-0-L.svg"><metadata
     id="metadata3678"><rdf:RDF><cc:Work
         rdf:about=""><dc:format>image/svg+xml</dc:format><dc:type
           rdf:resource="http://purl.org/dc/dcmitype/StillImage" /><dc:title></dc:title></cc:Work></rdf:RDF></metadata><sodipodi:namedview
     pagecolor="#ffffff"
     bordercolor="#666666"
     borderopacity="1"
     objecttolerance="10"
     gridtolerance="10"
     guidetolerance="10"
     inkscape:pageopacity="0"
     inkscape:pageshadow="2"
     inkscape:window-width="1309"
     inkscape:window-height="747"
     id="namedview3676"
     showgrid="false"
     units="px"
     inkscape:zoom="2.1204429"
     inkscape:cx="130.63334"
     inkscape:cy="39.309094"
     inkscape:window-x="57"
     inkscape:window-y="21"
     inkscape:window-maximized="1"
     inkscape:current-layer="svg3663" /><defs
     id="defs3665"><style
       type="text/css"
       id="style3667"><![CDATA[
    .fil1 {fill:none}
    .fil0 {fill:#000066;fill-rule:nonzero}
   ]]></style></defs><path
     class="fil0"
     d="m 64.67125,243.91439 168.88388,0 c 2.37865,11.89323 7.13594,21.40782 13.08256,27.35443 22.59714,23.78651 67.79141,28.54371 93.95652,8.32526 15.4612,-13.08255 21.40782,-33.30104 -8.32526,-47.57292 -13.08255,-5.94662 -34.49037,-5.94662 -60.65548,-9.51458 -63.03412,-10.70394 -97.52449,-11.89326 -123.6896,-28.54378 -27.35443,-17.83985 -45.19428,-39.24767 -45.19428,-65.41277 0,-17.83985 10.70391,-34.490372 24.97579,-49.951572 13.08255,-15.4612 34.49037,-27.35444 63.03412,-36.86902 78.49533,-24.97579 172.45185,-27.35443 241.43259,-1.18932 24.97579,9.51458 71.35939,32.11172 93.95653,57.08751 9.51458,-9.51459 20.21849,-19.02917 30.9224,-28.54376 39.24766,-29.73308 86.82058,-48.76225 159.36929,-48.76225 55.89819,0 99.90314,9.51459 133.20419,26.16511 20.21849,10.70391 49.95157,38.05834 68.98074,70.170072 l 16.65052,-93.956532 121.31094,0 -21.4078,120.121632 133.2042,0 20.2184,-120.121632 122.5003,0 0,0 0,0 -29.7331,185.534402 c -8.3252,53.51957 14.2719,85.63126 63.0342,107.03906 14.2718,7.136 32.1117,10.704 54.7088,13.0826 21.4078,2.3786 41.6263,3.568 60.6555,3.568 49.9516,0 110.6071,-3.568 167.6946,-73.73806 23.7864,-29.73308 48.7622,-187.913082 60.6554,-234.296682 l 0,0 c 0,0 0,0 0,-1.18932 l 24.9758,0 108.2284,0 -48.7622,242.621942 153.4227,0 209.3208,-147.47609 -180.7771,0 10.7039,-95.145852 369.8795,0 0,86.820592 -225.9714,152.23338 183.1558,0 -21.4078,104.66039 -308.0347,0 -756.4095,0 0,0 -88.0099,0 21.4078,-122.50024 -120.1216,0 -21.40782,122.50024 -122.50027,0 13.08255,-76.1166 c -1.18932,1.1893 -2.37864,2.3786 -3.56797,4.7573 -58.27683,55.8981 -90.38855,65.4127 -164.12659,72.5487 -48.76224,3.5679 -88.0099,-5.9467 -118.93231,-16.6506 -30.9224,-10.7039 -58.27683,-29.733 -80.87397,-55.8981 -4.75729,-7.136 -9.51458,-14.2719 -14.27187,-22.59718 -5.94662,14.27188 -17.83985,26.16508 -28.54376,38.05838 -16.65052,19.0291 -40.43698,32.1117 -70.17006,41.6263 -29.73308,9.5145 -67.79142,14.2718 -112.9857,14.2718 -79.68464,0 -135.58283,-10.7039 -165.31591,-33.301 -30.922399,-21.4078 -61.8448,-54.70887 -65.41277,-89.19924 z m 95.14585,296.14144 45.19428,10.7039 c -7.13594,9.5146 -14.27188,17.8399 -23.78646,24.9758 -8.32527,7.1359 -19.02917,11.8932 -30.9224,15.4612 -10.70391,3.568 -24.97579,4.7573 -40.43699,4.7573 -20.218494,0 -35.679695,-1.1893 -46.383603,-5.9466 -10.703908,-4.7573 -19.029169,-11.8932 -24.975785,-22.5972 -5.946615,-10.7039 -5.946615,-23.7864 -1.189323,-40.4369 7.135939,-21.4079 20.218493,-38.0584 39.247663,-49.9516 19.029169,-11.8932 44.004958,-17.8399 72.548708,-17.8399 22.59714,0 39.24766,3.568 49.95157,9.5146 10.70391,7.136 16.65053,17.8399 19.02917,32.1118 l -51.14089,7.1359 c 0,-3.568 -1.18932,-7.1359 -2.37865,-8.3253 -2.37864,-3.5679 -5.94661,-5.9466 -9.51458,-7.1359 -3.56797,-2.3787 -8.32526,-2.3787 -14.27188,-2.3787 -13.08255,0 -23.78646,3.568 -32.11172,10.704 -7.13594,5.9466 -11.893236,14.2718 -15.461205,26.1651 -4.757292,14.2718 -4.757292,24.9757 0,30.9224 3.567969,4.7573 11.893235,7.1359 22.597145,7.1359 10.7039,0 19.02916,-1.1893 26.1651,-5.9466 5.94662,-4.7573 11.89323,-10.7039 17.83985,-19.0292 z m 65.41277,-11.8932 c 5.94662,-22.5972 19.02917,-39.2477 39.24766,-51.1409 20.2185,-11.8932 45.19428,-17.8399 73.73804,-17.8399 29.73307,0 51.14089,5.9467 64.22344,17.8399 11.89323,11.8932 15.4612,28.5437 8.32526,49.9516 -4.75729,15.4612 -11.89323,27.3544 -22.59713,38.0583 -9.51459,9.5146 -22.59714,17.8398 -36.86902,22.5971 -15.4612,5.9467 -33.30105,8.3253 -52.33022,8.3253 -20.21849,0 -36.86901,-2.3786 -48.76224,-7.1359 -11.89324,-4.7573 -20.2185,-11.8933 -24.97579,-22.5972 -4.75729,-10.7039 -4.75729,-22.5971 0,-38.0583 z m 54.70886,0 c -3.56797,13.0825 -3.56797,22.5971 1.18933,28.5437 4.75729,5.9467 13.08255,8.3253 24.97578,8.3253 11.89323,0 22.59714,-2.3786 30.9224,-8.3253 7.13594,-5.9466 14.27188,-15.4612 19.02917,-30.9224 3.56797,-11.8932 2.37865,-21.4078 -2.37864,-27.3544 -4.7573,-5.9466 -13.08256,-8.3253 -24.97579,-8.3253 -10.70391,0 -21.40782,2.3787 -29.73308,8.3253 -8.32526,5.9466 -14.27187,15.4612 -19.02917,29.7331 z m 173.64118,-66.6021 72.54871,0 3.56797,80.874 52.33021,-80.874 73.73803,0 -41.6263,132.0149 -45.19428,0 30.9224,-101.0925 -65.41277,101.0925 -41.62631,0 -3.56797,-101.0925 -30.9224,101.0925 -45.19428,0 40.43699,-132.0149 z m 229.53936,0 92.7672,0 c 20.21849,0 33.30104,3.568 41.62631,10.7039 8.32526,7.1359 9.51458,16.6505 5.94661,29.7331 -4.75729,13.0825 -13.08255,23.7864 -26.16511,30.9224 -13.08255,8.3252 -30.9224,11.8932 -53.51954,11.8932 l -29.73307,0 -15.4612,48.7623 -55.89819,0 40.43699,-132.0149 z m 39.24766,55.8982 13.08255,0 c 10.70391,0 19.02917,-1.1893 23.78646,-3.568 4.7573,-2.3786 8.32527,-5.9466 9.51459,-10.7039 1.18932,-4.7573 1.18932,-8.3253 -2.37865,-10.7039 -2.37864,-2.3787 -9.51458,-4.7573 -19.02917,-4.7573 l -16.65052,0 -8.32526,29.7331 z m 96.33517,76.1167 40.43698,-132.0149 91.57787,0 c 17.83985,0 30.9224,1.1893 39.24766,2.3786 8.32527,2.3787 14.27189,7.136 17.83989,13.0826 3.5679,5.9466 4.7573,13.0825 1.1893,21.4078 -2.3787,7.1359 -5.9466,13.0826 -11.89325,19.0292 -5.94661,4.7573 -13.08255,9.5146 -21.40781,13.0825 -5.94662,1.1894 -11.89323,3.568 -21.40782,4.7573 5.94662,1.1893 10.70391,3.568 13.08256,4.7573 2.37864,1.1893 4.75729,3.568 7.13593,7.136 2.37865,3.5679 4.7573,5.9466 4.7573,8.3252 l 15.4612,38.0584 -63.03412,0 -16.65052,-40.437 c -2.37865,-4.7573 -4.75729,-8.3253 -7.13594,-9.5146 -3.56797,-2.3787 -7.13594,-3.568 -13.08255,-3.568 l -4.75729,0 -16.65053,53.5196 -54.70886,0 z m 79.68465,-78.4954 22.59714,0 c 2.37864,0 8.32526,-1.1893 15.4612,-2.3786 3.56797,0 7.13594,-1.1893 10.7039,-3.568 2.37865,-2.3786 4.75729,-4.7573 5.94661,-8.3252 1.18932,-3.568 0,-7.136 -2.37865,-9.5146 -3.56796,-2.3787 -9.51457,-3.568 -20.21848,-3.568 l -23.78646,0 -8.32526,27.3544 z m 147.47605,-53.5195 148.6654,0 -8.3253,28.5437 -92.7672,0 -7.1359,20.2185 86.8206,0 -8.3253,27.3545 -86.8206,0 -7.1359,26.1651 95.1458,0 -9.5146,29.7331 -151.044,0 40.437,-132.0149 z m 137.9614,88.0099 53.5196,-2.3786 c -1.1893,7.1359 0,11.8932 2.3786,15.4612 3.568,4.7572 11.8933,7.1359 21.4078,7.1359 8.3253,0 15.4612,-1.1893 20.2185,-3.568 4.7573,-3.5679 8.3253,-5.9466 9.5146,-9.5146 1.1893,-3.5679 0,-7.1359 -3.5679,-9.5145 -3.568,-2.3787 -11.8933,-4.7573 -26.1652,-7.136 -22.5971,-4.7573 -38.0583,-9.5146 -46.3836,-16.6505 -8.3252,-7.1359 -11.8932,-15.4612 -8.3252,-26.1651 2.3786,-5.9466 7.1359,-13.0826 14.2719,-19.0292 7.1359,-5.9466 16.6505,-10.7039 28.5437,-14.2719 11.8932,-3.5679 26.1651,-4.7573 45.1943,-4.7573 22.5971,0 39.2477,2.3787 49.9516,9.5146 9.5145,5.9466 14.2718,16.6506 11.8932,29.7331 l -53.5195,2.3787 c 1.1893,-5.9467 0,-10.704 -4.7573,-13.0826 -3.568,-2.3786 -8.3253,-3.568 -16.6506,-3.568 -5.9466,0 -11.8932,0 -15.4612,2.3787 -3.5679,2.3786 -5.9466,4.7573 -7.1359,7.1359 0,2.3787 0,4.7573 2.3786,5.9466 2.3787,2.3787 7.136,3.568 16.6506,4.7573 23.7864,3.568 39.2476,8.3253 48.7622,11.8933 9.5146,3.5679 15.4612,9.5145 17.8399,14.2718 3.5679,5.9466 3.5679,13.0826 1.1893,20.2185 -2.3787,8.3253 -7.136,16.6505 -16.6505,23.7865 -8.3253,7.1359 -19.0292,11.8932 -30.9224,16.6505 -13.0826,3.568 -27.3545,4.7573 -45.1943,4.7573 -30.9224,0 -49.9516,-3.568 -59.4662,-13.0826 -9.5146,-8.3252 -11.8932,-19.0291 -9.5146,-33.301 z m 173.6412,0 53.5196,-2.3786 c 0,7.1359 0,11.8932 2.3786,15.4612 4.7573,4.7572 11.8932,7.1359 22.5971,7.1359 8.3253,0 14.2719,-1.1893 19.0292,-3.568 5.9466,-3.5679 8.3253,-5.9466 9.5146,-9.5146 1.1893,-3.5679 0,-7.1359 -3.568,-9.5145 -2.3786,-2.3787 -11.8932,-4.7573 -24.9758,-7.136 -23.7864,-4.7573 -39.2476,-9.5146 -47.5729,-16.6505 -8.3252,-7.1359 -10.7039,-15.4612 -8.3252,-26.1651 2.3786,-5.9466 7.1359,-13.0826 14.2718,-19.0292 7.136,-5.9466 16.6506,-10.7039 28.5438,-14.2719 11.8932,-3.5679 27.3544,-4.7573 46.3836,-4.7573 22.5971,0 39.2477,2.3787 48.7622,9.5146 10.7039,5.9466 14.2719,16.6506 11.8933,29.7331 l -52.3302,2.3787 c 0,-5.9467 -1.1894,-10.704 -4.7573,-13.0826 -3.568,-2.3786 -9.5146,-3.568 -16.6506,-3.568 -7.1359,0 -11.8932,0 -15.4612,2.3787 -4.7573,2.3786 -7.1359,4.7573 -7.1359,7.1359 -1.1893,2.3787 0,4.7573 1.1893,5.9466 2.3787,2.3787 8.3253,3.568 17.8399,4.7573 22.5971,3.568 39.2476,8.3253 48.7622,11.8933 8.3253,3.5679 14.2719,9.5145 17.8399,14.2718 2.3786,5.9466 3.5679,13.0826 1.1893,20.2185 -2.3787,8.3253 -8.3253,16.6505 -16.6505,23.7865 -8.3253,7.1359 -19.0292,11.8932 -32.1118,16.6505 -11.8932,3.568 -27.3544,4.7573 -44.0049,4.7573 -30.9224,0 -51.1409,-3.568 -59.4662,-13.0826 -9.5146,-8.3252 -13.0825,-19.0291 -10.7039,-33.301 z m 184.3451,-21.4078 c 5.9466,-22.5972 20.2185,-39.2477 39.2477,-51.1409 20.2185,-11.8932 45.1942,-17.8399 73.738,-17.8399 30.9224,0 51.1409,5.9467 64.2234,17.8399 11.8933,11.8932 15.4612,28.5437 8.3253,49.9516 -4.7573,15.4612 -11.8932,27.3544 -21.4078,38.0583 -10.7039,9.5146 -22.5972,17.8398 -38.0584,22.5971 -15.4612,5.9467 -32.1117,8.3253 -52.3302,8.3253 -20.2185,0 -36.869,-2.3786 -47.5729,-7.1359 -11.8932,-4.7573 -20.2185,-11.8933 -26.1651,-22.5972 -4.7573,-10.7039 -4.7573,-22.5971 0,-38.0583 z m 54.7089,0 c -3.568,13.0825 -3.568,22.5971 1.1893,28.5437 5.9466,5.9467 14.2719,8.3253 24.9758,8.3253 11.8932,0 22.5971,-2.3786 30.9224,-8.3253 8.3252,-5.9466 14.2718,-15.4612 19.0291,-30.9224 3.568,-11.8932 3.568,-21.4078 -2.3786,-27.3544 -4.7573,-5.9466 -13.0826,-8.3253 -24.9758,-8.3253 -10.7039,0 -20.2185,2.3787 -29.7331,8.3253 -8.3252,5.9466 -14.2718,15.4612 -19.0291,29.7331 z m 134.3935,65.4128 40.437,-132.0149 92.7672,0 c 16.6505,0 29.733,1.1893 38.0583,2.3786 8.3253,2.3787 14.2719,7.136 17.8398,13.0826 4.7573,5.9466 4.7573,13.0825 2.3787,21.4078 -2.3787,7.1359 -5.9466,13.0826 -11.8932,19.0292 -5.9467,4.7573 -13.0826,9.5146 -21.4079,13.0825 -5.9466,1.1894 -13.0825,3.568 -21.4078,4.7573 5.9466,1.1893 10.7039,3.568 13.0826,4.7573 1.1893,1.1893 3.568,3.568 5.9466,7.136 3.568,3.5679 4.7573,5.9466 5.9466,8.3252 l 14.2719,38.0584 -61.8448,0 -17.8399,-40.437 c -1.1893,-4.7573 -3.5679,-8.3253 -5.9466,-9.5146 -3.5679,-2.3787 -8.3252,-3.568 -13.0825,-3.568 l -4.7573,0 -16.6505,53.5196 -55.8982,0 z m 79.6846,-78.4954 23.7865,0 c 2.3786,0 7.1359,-1.1893 15.4612,-2.3786 3.568,0 7.1359,-1.1893 9.5146,-3.568 3.5679,-2.3786 5.9466,-4.7573 5.9466,-8.3252 1.1893,-3.568 1.1893,-7.136 -2.3787,-9.5146 -2.3786,-2.3787 -9.5145,-3.568 -19.0291,-3.568 l -24.9758,0 -8.3253,27.3544 z m 148.6654,-53.5195 148.6654,0 -9.5146,28.5437 -92.7672,0 -5.9466,20.2185 85.6313,0 -8.3253,27.3545 -85.6313,0 -8.3252,26.1651 95.1458,0 -8.3252,29.7331 -151.0441,0 40.437,-132.0149 z m 136.7722,88.0099 53.5195,-2.3786 c 0,7.1359 0,11.8932 3.568,15.4612 3.5679,4.7572 10.7039,7.1359 21.4078,7.1359 8.3253,0 14.2719,-1.1893 19.0292,-3.568 5.9466,-3.5679 8.3252,-5.9466 9.5145,-9.5146 1.1894,-3.5679 0,-7.1359 -2.3786,-9.5145 -3.568,-2.3787 -11.8932,-4.7573 -26.1651,-7.136 -23.7865,-4.7573 -39.2477,-9.5146 -47.5729,-16.6505 -8.3253,-7.1359 -10.7039,-15.4612 -7.136,-26.1651 1.1894,-5.9466 5.9466,-13.0826 13.0826,-19.0292 7.1359,-5.9466 16.6505,-10.7039 28.5437,-14.2719 11.8933,-3.5679 27.3545,-4.7573 46.3836,-4.7573 22.5972,0 39.2477,2.3787 48.7623,9.5146 10.7039,5.9466 14.2719,16.6506 13.0825,29.7331 l -53.5195,2.3787 c 0,-5.9467 -1.1893,-10.704 -4.7573,-13.0826 -3.568,-2.3786 -9.5146,-3.568 -16.6505,-3.568 -7.136,0 -11.8932,0 -15.4612,2.3787 -4.7573,2.3786 -7.136,4.7573 -7.136,7.1359 -1.1893,2.3787 0,4.7573 1.1894,5.9466 2.3786,2.3787 8.3252,3.568 17.8398,4.7573 22.5972,3.568 39.2477,8.3253 48.7623,11.8933 8.3252,3.5679 15.4612,9.5145 17.8398,14.2718 3.568,5.9466 3.568,13.0826 1.1893,20.2185 -2.3786,8.3253 -8.3252,16.6505 -16.6505,23.7865 -8.3253,7.1359 -19.0292,11.8932 -32.1117,16.6505 -11.8932,3.568 -27.3544,4.7573 -44.005,4.7573 -30.9224,0 -51.1409,-3.568 -59.4661,-13.0826 -9.5146,-8.3252 -13.0826,-19.0291 -10.7039,-33.301 z M 1558.461,23.889588 l 0,0 -27.3544,156.990652 c -3.568,16.65053 -3.568,29.73308 -16.6505,39.24769 -13.0826,9.51458 -29.7331,14.27188 -51.1409,14.27188 -20.2185,0 -35.6797,-4.7573 -46.3836,-14.27188 -10.7039,-9.51461 -15.4612,-22.59716 -11.8933,-39.24769 l 30.9224,-158.179972 122.5003,0 c 0,1.18932 0,1.18932 0,1.18932 z M 508.28877,122.60341 386.97781,123.79273 c -3.56797,-15.4612 -11.89323,-27.354432 -23.78646,-33.301042 -10.70391,-7.13594 -27.35443,-10.70391 -47.57292,-10.70391 -16.65053,0 -29.73308,2.37865 -38.05834,7.13594 -8.32526,5.94661 -13.08256,11.89323 -13.08256,19.029172 -1.18932,35.67969 42.81563,35.67969 54.70887,38.05834 44.00495,7.13594 120.12163,-9.51459 172.45185,38.05834 1.18932,-22.59714 7.13593,-41.62631 16.65052,-59.46616 z m 248.56853,108.22843 142.71877,-1.18933 9.51459,-55.89821 -135.58284,0 c -2.37864,-41.6263 -29.73308,-60.65547 -55.89818,-60.65547 -34.49037,0 -72.54871,7.13593 -90.38856,77.306 -28.54375,109.4177 97.52449,121.311 129.63622,40.43701 z"
     id="path3672"
     inkscape:connector-curvature="0"
     style="fill:#000066;fill-rule:nonzero" /></svg>